HIERARCHY
ROOT SimulationBone
{
	OFFSET 0.000000 0.000000 0.000000
	CHANNELS 6 Xposition Yposition Zposition Zrotation Yrotation Xrotation 
	JOINT Hips
	{
		OFFSET 0.000000 0.000000 0.000000
		CHANNELS 6 Xposition Yposition Zposition Zrotation Yrotation Xrotation 
		JOINT RightUpLeg
		{
			OFFSET 0.103457 1.857824 10.548504
			CHANNELS 3 Zrotation Yrotation Xrotation
			JOINT RightLeg
			{
				OFFSET 43.500000 -0.000038 -0.000017
				CHANNELS 3 Zrotation Yrotation Xrotation
				JOINT RightFoot
				{
					OFFSET 42.372200 0.000011 0.000019
					CHANNELS 3 Zrotation Yrotation Xrotation
					JOINT RightToe
					{
						OFFSET 17.300011 0.000002 -0.000008
						CHANNELS 3 Zrotation Yrotation Xrotation
						End Site
						{
							OFFSET 0.000000 0.000000 0.000000
						}
					}
				}
			}
		}
		JOINT LeftUpLeg
		{
			OFFSET 0.103457 1.857822 -10.548492
			CHANNELS 3 Zrotation Yrotation Xrotation
			JOINT LeftLeg
			{
				OFFSET 43.500038 -0.000027 0.000036
				CHANNELS 3 Zrotation Yrotation Xrotation
				JOINT LeftFoot
				{
					OFFSET 42.372261 0.000015 0.000010
					CHANNELS 3 Zrotation Yrotation Xrotation
					JOINT LeftToe
					{
						OFFSET 17.299988 -0.000006 0.000008
						CHANNELS 3 Zrotation Yrotation Xrotation
						End Site
						{
							OFFSET 0.000000 0.000000 0.000000
						}
					}
				}
			}
		}
		JOINT Spine
		{
			OFFSET 6.901965 -2.603737 0.000006
			CHANNELS 3 Zrotation Yrotation Xrotation
			JOINT Spine1
			{
				OFFSET 12.588104 -0.000005 0.000007
				CHANNELS 3 Zrotation Yrotation Xrotation
				JOINT Spine2
				{
					OFFSET 12.343202 0.000026 -0.000008
					CHANNELS 3 Zrotation Yrotation Xrotation
					JOINT Neck
					{
						OFFSET 25.832890 -0.000029 -0.000007
						CHANNELS 3 Zrotation Yrotation Xrotation
						JOINT Head
						{
							OFFSET 11.766619 0.000021 0.000012
							CHANNELS 3 Zrotation Yrotation Xrotation
							End Site
							{
								OFFSET 0.000000 0.000000 0.000000
							}
						}
					}
					JOINT RightShoulder
					{
						OFFSET 19.745909 -1.480377 6.000106
						CHANNELS 3 Zrotation Yrotation Xrotation
						JOINT RightArm
						{
							OFFSET 11.284110 -0.000009 -0.000020
							CHANNELS 3 Zrotation Yrotation Xrotation
							JOINT RightForeArm
							{
								OFFSET 33.000053 0.000014 0.000021
								CHANNELS 3 Zrotation Yrotation Xrotation
								JOINT RightHand
								{
									OFFSET 25.200008 0.000006 -0.000004
									CHANNELS 3 Zrotation Yrotation Xrotation
									End Site
									{
										OFFSET 0.000000 0.000000 0.000000
									}
								}
							}
						}
					}
					JOINT LeftShoulder
					{
						OFFSET 19.746101 -1.480381 -6.000081
						CHANNELS 3 Zrotation Yrotation Xrotation
						JOINT LeftArm
						{
							OFFSET 11.284131 -0.000022 0.000003
							CHANNELS 3 Zrotation Yrotation Xrotation
							JOINT LeftForeArm
							{
								OFFSET 33.000095 0.000014 0.000005
								CHANNELS 3 Zrotation Yrotation Xrotation
								JOINT LeftHand
								{
									OFFSET 25.199774 0.000153 0.000423
									CHANNELS 3 Zrotation Yrotation Xrotation
									End Site
									{
										OFFSET 0.000000 0.000000 0.000000
									}
								}
							}
						}
					}
				}
			}
		}
	}
}
MOTION
Frames: 5
Frame Time: 0.016667
-326.342485 0.000000 465.291538 180.000000 73.219343 180.000000 -2.348515 80.946536 -2.730977 93.965568 -5.472178 -179.878164 159.042615 -6.182889 174.534168 -57.675649 2.938158 3.141428 100.119509 -2.989177 -11.884629 21.454559 0.003097 0.000017 174.133803 0.377272 -177.301257 -90.224694 -1.628505 -3.525407 80.866351 1.649058 -3.326796 21.454551 -0.003090 0.000003 10.441532 -0.893562 -0.405103 10.878288 -1.744963 -0.892537 10.560071 -1.750460 -0.881992 9.912408 -7.954651 -7.409561 -23.092698 16.343288 -15.373289 165.111705 -72.026404 13.934193 -3.349187 36.841277 37.439061 -45.406663 -21.679180 2.069451 2.410184 -9.238161 23.955441 -163.199644 78.807043 18.611110 -1.770491 -58.688753 -38.123379 -60.067087 16.977595 -2.232756 2.214093 18.239669 -13.986232 
-327.766782 0.000000 462.348045 180.000000 73.866677 180.000000 -2.688739 81.351120 -2.699450 93.770210 -5.111986 -179.339400 161.440031 -5.975692 174.649112 -56.929718 3.016078 2.840932 100.972393 -2.709733 -12.001945 21.454560 0.003095 0.000016 169.831738 -0.567201 -175.899323 -90.984901 -1.612701 -2.950267 82.623657 1.190711 -3.757512 21.454553 -0.003086 -0.000001 10.498424 -0.796246 -0.682901 10.994526 -1.523876 -1.438513 10.676415 -1.532667 -1.429297 9.491959 -7.743215 -6.915748 -22.856289 15.810479 -14.596287 163.803494 -72.794001 15.242492 -5.069505 37.689994 32.166683 -47.898302 -22.196588 2.192603 1.175273 -10.533642 26.417287 -164.118611 78.850314 17.675404 -0.105170 -57.901533 -40.382953 -59.673422 16.482751 -2.187291 3.111465 17.571666 -11.488492 
-329.109291 0.000000 459.313790 180.000000 74.474613 180.000000 -3.061461 81.973975 -2.606045 93.465690 -4.900337 -179.129301 164.207104 -5.712020 174.562123 -55.246016 3.038049 2.451576 101.174809 -2.445740 -12.161352 21.454560 0.003101 0.000016 165.740990 -1.284449 -174.976398 -90.327311 -1.327929 -2.564351 84.235244 1.211314 -2.623697 21.454553 -0.003087 -0.000002 10.506412 -0.725864 -0.886580 11.011671 -1.363924 -1.838340 10.693657 -1.375135 -1.830088 9.266045 -7.491709 -6.460639 -23.038696 15.256154 -13.907633 162.196487 -73.680150 16.847808 -6.592220 38.784962 27.277842 -51.179636 -22.266457 2.316748 0.355583 -12.777269 25.870346 -163.372453 78.923293 18.434262 1.675596 -57.008770 -43.307768 -60.122167 16.486601 -2.203027 3.053912 16.376473 -10.413714 
-330.382819 0.000000 456.192380 180.000000 75.045436 180.000000 -3.422449 82.805290 -2.512640 92.979943 -4.835142 -179.125187 167.229368 -5.250910 174.662472 -52.657674 2.843518 1.862294 100.656401 -2.110485 -12.320116 21.454560 0.003109 0.000016 161.868353 -1.756003 -174.460817 -88.301129 -0.723749 -2.371734 85.397704 1.339128 -1.402584 21.454553 -0.003090 -0.000001 10.438842 -0.676295 -1.064683 10.877425 -1.249374 -2.188338 10.559504 -1.262706 -2.180774 9.296413 -7.335358 -5.996109 -23.358620 14.649776 -13.197528 161.083604 -74.399307 17.951901 -7.912137 39.679355 23.207267 -55.075240 -22.103062 2.434128 -0.113668 -14.864968 24.051654 -161.811278 79.143233 20.020635 3.548155 -56.123826 -46.416612 -60.979491 16.553715 -2.241305 2.278331 15.354680 -10.882271 
-331.597534 0.000000 452.994194 180.000000 75.581063 180.000000 -3.722535 83.819727 -2.482863 92.292614 -4.900287 -179.151520 170.408981 -4.517639 175.270479 -49.248028 2.354657 1.021610 99.302497 -1.677602 -12.420967 21.454559 0.003111 0.000015 158.265640 -1.954585 -174.167637 -84.980759 0.248317 -2.263676 85.879743 1.202425 -1.622171 21.454549 -0.003092 -0.000002 10.287313 -0.641482 -1.273777 10.575580 -1.163741 -2.600967 10.257770 -1.179563 -2.593912 9.548563 -7.339536 -5.487787 -23.436541 13.948842 -12.358800 161.305233 -74.748682 17.709152 -8.863628 40.040615 20.176570 -59.510371 -21.928780 2.577337 -0.618313 -15.668511 23.299596 -160.215445 79.569006 21.638299 5.483709 -55.315275 -49.215244 -61.854384 16.191796 -2.252388 1.153858 15.065372 -12.637962 
